<?xml version="1.0" encoding="UTF-8" standalone="no"?>
<!DOCTYPE svg PUBLIC "-//W3C//DTD SVG 1.1//EN" "http://www.w3.org/Graphics/SVG/1.1/DTD/svg11.dtd">
<svg width="100%" height="100%" viewBox="0 0 240 240" version="1.1" xmlns="http://www.w3.org/2000/svg" xmlns:xlink="http://www.w3.org/1999/xlink" xml:space="preserve" xmlns:serif="http://www.serif.com/" style="fill-rule:evenodd;clip-rule:evenodd;stroke-linecap:round;stroke-linejoin:round;stroke-miterlimit:1.5;">
    <g id="Layer1">
        <g>
            <g transform="matrix(1,0,0,1,-50.1164,28.1481)">
                <path d="M182.812,174.328L59.643,174.328C53.402,161.024 50.116,145.933 50.116,130.571C50.116,82.272 81.98,43.058 121.228,43.058C160.475,43.058 192.339,82.272 192.339,130.571C192.339,145.933 189.053,161.024 182.812,174.328Z" style="stroke:#fff;stroke-width:1px;"/>
            </g>
            <g transform="matrix(1,0,0,1,-51.4921,-19.6825)">
                <ellipse cx="122.603" cy="67.079" rx="42.434" ry="44.974" style="stroke:#fff;stroke-width:1px;"/>
            </g>
        </g>
        <g>
            <g transform="matrix(1,0,0,1,47.6614,28.1481)">
                <path d="M182.812,174.328L59.643,174.328C53.402,161.024 50.116,145.933 50.116,130.571C50.116,82.272 81.98,43.058 121.228,43.058C160.475,43.058 192.339,82.272 192.339,130.571C192.339,145.933 189.053,161.024 182.812,174.328Z" style="stroke:#fff;stroke-width:1px;"/>
            </g>
            <g transform="matrix(1,0,0,1,46.2857,-19.6825)">
                <ellipse cx="122.603" cy="67.079" rx="42.434" ry="44.974" style="stroke:#fff;stroke-width:1px;"/>
            </g>
        </g>
        <g transform="matrix(1,0,0,1,0,4.61376)">
            <g transform="matrix(1,0,0,1,-1.22751,57.9259)">
                <path d="M182.812,174.328L59.643,174.328C53.402,161.024 50.116,145.933 50.116,130.571C50.116,82.272 81.98,43.058 121.228,43.058C160.475,43.058 192.339,82.272 192.339,130.571C192.339,145.933 189.053,161.024 182.812,174.328Z" style="stroke:#fff;stroke-width:1px;"/>
            </g>
            <g transform="matrix(1,0,0,1,-2.60318,10.0952)">
                <ellipse cx="122.603" cy="67.079" rx="42.434" ry="44.974" style="stroke:#fff;stroke-width:1px;"/>
            </g>
        </g>
    </g>
</svg>
